# xmcd
#
# Track frame offsets:
#	150
#	23287
#	38189
#	52579
#	66674
#	91081
#	102171
#	119321
#	134704
#	156098
#	168079
#
# Disc length: 2492 seconds
#
# Revision: 1
# Processed by: cddbd v1.5.1PL0 Copyright (c) Steve Scherf et al.
# Submitted via: audiograbber 1.83.01
#
DISCID=8209ba0b
DTITLE=Bjørnar Spydevold - Odyssé
DYEAR=2001
DGENRE=Kristen
TTITLE0=Odyssé
TTITLE1=Gje meg handa di
TTITLE2=Going home
TTITLE3=Efter regnet
TTITLE4=You'll never walk alone
TTITLE5=Tonerna
TTITLE6=Guldet blev til sand
TTITLE7=Vårsøg
TTITLE8=On eagles wings
TTITLE9=Ut mot et hav
TTITLE10=Eg elskar deg
EXTD=
EXTT0=
EXTT1=
EXTT2=
EXTT3=
EXTT4=
EXTT5=
EXTT6=
EXTT7=
EXTT8=
EXTT9=
EXTT10=
PLAYORDER=
